<svg width="73" height="45" viewBox="0 0 73 45" fill="none" xmlns="http://www.w3.org/2000/svg">
                    <g opacity="0.9">
                    <path d="M24.253 42.8808C24.3378 42.911 24.4286 42.9413 24.5195 42.9776C25.1613 43.1956 25.9605 43.4439 26.5721 43.6316C27.2078 43.8132 28.0616 44.013 28.7034 44.1644C20.3537 42.1239 13.2272 37.5525 7.52954 30.5652L9.13408 32.5451C9.33389 32.7691 9.50948 32.969 9.67901 33.1506C10.2724 33.7682 10.9748 34.4827 11.6892 35.1729C12.1312 35.5786 12.6822 36.063 13.4451 36.7411C13.8387 37.056 14.2989 37.4072 14.7711 37.7583C18.8218 40.7434 21.5889 41.8454 24.2591 42.8868L24.253 42.8808Z" fill="#262626" />
                    <path d="M2.76421 22.0522C9.40033 37.7222 26.0209 43.7225 31.8941 44.7095C31.9244 44.7095 31.9486 44.7155 31.9789 44.7216C32.2877 44.7579 32.6752 44.8003 32.9779 44.8306L33.5955 44.8851C33.5955 44.8851 33.6197 44.8851 33.6258 44.8851C30.1624 44.5642 6.34263 37.5345 0.978027 15.9126C1.03858 16.2335 1.09307 16.5484 1.15362 16.839C1.55324 18.3466 2.16478 20.3205 2.67944 21.8221C2.70972 21.9009 2.73999 21.9735 2.76421 22.0522Z" fill="#262626" />
                    <path d="M35.7085 44.9941C35.8477 44.9941 35.9809 45.0002 36.1202 45.0002H36.1807C36.1807 45.0002 36.2292 45.0002 36.2473 45.0002C36.4048 45.0002 36.5561 45.0002 36.7136 45.0002C36.8468 45.0002 36.98 45.0002 37.095 45.0002C37.1011 45.0002 37.1071 45.0002 37.1132 45.0002C34.3643 44.9517 -4.96806 30.0447 1.38954 -0.241699C1.38954 -0.241699 1.38954 -0.241712 1.38954 -0.235657C1.17156 0.618078 0.959644 1.76851 0.777998 2.6283C0.602407 3.73028 0.457091 5.21372 0.335994 6.32176C-0.311876 33.4899 32.1119 44.649 35.7085 44.9941Z" fill="#262626" />
                    <path d="M4.92604 -8.99722C-11.0527 21.8099 33.7048 43.5589 39.0573 44.9092C39.0936 44.9092 39.1299 44.9092 39.1662 44.9031L39.4024 44.885C39.4387 44.885 39.475 44.8789 39.5174 44.8728C39.7899 44.8486 40.1169 44.8123 40.3954 44.7881C40.4317 44.7881 40.468 44.782 40.4983 44.776C34.1589 39.9563 26.445 37.3285 20.3356 32.1455C17.3445 29.6085 10.3391 23.6687 6.246 15.7248C-1.94622 -0.169227 5.34382 -10.3051 8.92224 -14.6646C8.79509 -14.5192 8.67399 -14.3739 8.5529 -14.2347L7.94741 -13.5141C7.00285 -12.2123 5.81005 -10.4262 4.95631 -9.05171C4.9442 -9.03354 4.93815 -9.01538 4.92604 -8.99722Z" fill="#262626" />
                    <path d="M28.1462 -26.4353C28.1462 -26.4353 28.1886 -26.4474 28.2128 -26.4534C28.1583 -26.4413 28.0917 -26.4292 28.0432 -26.4171C27.6436 -26.3263 27.1229 -26.187 26.7293 -26.078C25.918 -25.854 24.8463 -25.521 24.0591 -25.2243C23.5748 -25.0427 22.9329 -24.8005 22.4607 -24.6007C21.8915 -24.3585 21.1468 -24.0073 20.5837 -23.7469C20.0085 -23.4805 19.2637 -23.0869 18.7188 -22.766C18.077 -22.3906 17.2838 -21.9002 16.5814 -21.4461C9.34585 -16.469 3.63612 -8.48264 4.42326 0.520926C6.28815 21.7614 30.3441 36.3293 39.3961 41.815C41.487 43.0825 42.5931 43.9625 42.7142 44.4549C42.7142 44.4549 42.7565 44.4489 42.7747 44.4428C43.2712 44.352 43.8949 44.2188 44.3913 44.1159C44.4095 44.1159 44.4277 44.1098 44.4458 44.1038C44.6214 44.0432 44.7486 43.7889 44.8697 43.6436C44.458 42.8504 43.6527 42.2813 39.2992 39.4294C28.0977 32.0909 16.8236 23.6505 10.242 11.6921C-4.61059 -15.3065 24.1924 -29.275 36.5322 -25.9872C34.1405 -26.9136 31.2281 -27.0166 28.1522 -26.4413L28.1462 -26.4353Z" fill="#262626" />
                    <path d="M40.6674 36.4142C47.4852 41.2338 49.1079 42.3782 46.9524 43.4439C46.9766 43.4378 47.0008 43.4318 47.019 43.4257C47.352 43.3228 47.7274 43.1956 48.0967 43.0745C48.351 42.9898 48.5993 42.8989 48.8475 42.8081C51.8992 41.3913 49.2411 39.4295 42.8835 34.7491C35.8538 29.5722 27.0985 23.1298 19.6752 13.7085C-2.24334 -14.1075 21.1526 -27.8763 36.5198 -25.9811C19.0576 -29.7654 -18.5188 -5.40064 40.6614 36.4142H40.6674Z" fill="#262626" />
                    <path d="M44.6757 31.001C52.6257 37.0983 55.6047 39.3809 51.657 41.6575C51.6872 41.6454 51.7175 41.6273 51.7478 41.6152C52.4078 41.3003 53.2312 40.8644 53.867 40.5435C56.9429 38.7452 55.7137 36.6562 53.9275 34.6703C46.4498 26.3569 36.5198 20.847 28.8604 12.7396C4.21113 -13.3568 20.7469 -26.3385 36.5259 -25.9752C20.4442 -27.4404 -8.26793 -9.59074 44.6757 31.0071V31.001Z" fill="#262626" />
                    <path d="M50.8214 25.9577C58.3961 32.0246 61.0965 35.2882 57.0519 38.57C57.7421 38.0856 58.6201 37.3953 59.3103 36.8685C59.6555 36.5839 60.0188 36.2752 60.3639 35.9664C63.5064 33.0903 61.7444 31.5342 40.6008 12.9095C9.95117 -14.0831 23.7623 -23.6134 33.7528 -25.6055C24.6947 -23.9162 -0.566107 -15.2153 50.8214 25.9577Z" fill="#262626" />
                    <path d="M49.4106 14.078C61.9744 24.1896 66.6911 28.8155 62.6041 33.841C62.6344 33.8108 62.6586 33.7866 62.6828 33.7563C63.3246 33.066 64.0996 32.1518 64.7051 31.4554C64.7172 31.4373 64.7294 31.4252 64.7415 31.407C68.3199 26.7205 64.8989 21.7858 50.1493 10.324C11.6646 -19.5749 32.0513 -25.1574 36.5319 -25.9749C33.2683 -25.5631 5.90644 -20.9312 49.4166 14.078H49.4106Z" fill="#262626" />
                    <path d="M52.0083 5.98853C66.2251 16.6087 70.1365 22.04 67.4784 27.4712C67.5874 27.2895 67.6903 27.1139 67.7933 26.9383L67.8902 26.7688C67.9628 26.6416 68.0294 26.5266 68.096 26.4116L68.9074 24.8494C69.0042 24.6496 69.1011 24.4498 69.198 24.256C72.3708 16.9781 60.3458 8.22277 52.3655 2.41617C26.3599 -16.5053 29.3994 -23.4623 36.526 -25.969C30.4409 -24.3826 19.7601 -18.0856 52.0083 6.00065V5.98853Z" fill="#262626" />
                    <path d="M52.6984 -2.25829C65.1108 6.48492 72.5462 12.3339 71.0022 19.63C71.0748 19.3818 71.1535 19.1335 71.2202 18.8913C71.4684 17.9831 71.7167 16.9598 71.9165 16.1424C72.9821 8.87054 65.4741 3.3243 53.1404 -5.11012C44.9905 -10.6866 29.8231 -21.0647 36.5258 -25.9812C26.0146 -21.0586 46.0986 -6.90841 52.6984 -2.25829Z" fill="#262626" />
                    <path d="M53.6132 -8.68825C67.5999 0.387976 72.3529 4.50529 72.6072 10.7539C72.6133 10.6328 72.6254 10.5056 72.6315 10.3845L72.6738 8.85872L72.6375 7.38134C72.6315 7.2118 72.6254 7.04831 72.6133 6.87877C72.0744 0.321367 63.3373 -5.08561 52.2871 -11.9155C44.5127 -16.717 35.7029 -22.1664 36.5324 -25.9749C32.8934 -22.124 45.3664 -14.0347 53.6192 -8.68219L53.6132 -8.68825Z" fill="#262626" />
                    <path d="M52.7044 -14.4828C65.5892 -7.16849 70.4391 -3.61428 71.9831 1.74427C71.7894 0.817877 71.4745 -0.356775 71.2141 -1.34977C71.1536 -1.55564 71.093 -1.75543 71.0325 -1.9613C68.9375 -7.41067 61.9199 -11.3221 49.7315 -17.7281C41.1155 -22.2632 38.2757 -24.0373 36.5259 -25.9749C37.531 -23.0927 43.8946 -19.478 52.7044 -14.4767V-14.4828Z" fill="#262626" />
                    </g>
                </svg>