<svg width="24" height="18" viewBox="0 0 24 18" fill="none" xmlns="http://www.w3.org/2000/svg">
  <path d="M4.57556 13.5964L4.83622 14.5839C5.16637 15.8678 5.88751 16.5262 7.32109 16.5262H16.6785C18.1208 16.5262 18.8332 15.8843 19.172 14.5839L19.4327 13.5964H4.57556ZM4.28885 12.4689H19.7281L21.3615 6.13189L20.6491 5.74509L16.6438 8.51032C16.3483 8.70787 16.1485 8.63378 15.9834 8.41157L12.2126 3.01277L11.7956 2.99631L7.9901 8.43622C7.8424 8.65021 7.66863 8.71608 7.37322 8.51853L3.44607 5.80269L2.61199 6.00844L4.28885 12.4689ZM2.93346 7.77784C4.08033 7.77784 5.00129 6.89727 5.00129 5.80269C5.00129 4.73282 4.08033 3.84399 2.93346 3.84399C1.78659 3.84399 0.856934 4.72458 0.856934 5.80269C0.856934 6.89727 1.79528 7.77784 2.93346 7.77784ZM12.0042 4.35424C13.1423 4.35424 14.072 3.47364 14.072 2.3873C14.072 1.31741 13.1423 0.428589 12.0042 0.428589C10.8486 0.428589 9.92763 1.30919 9.92763 2.3873C9.92763 3.47364 10.8573 4.35424 12.0042 4.35424ZM21.0661 7.77784C22.2043 7.77784 23.1426 6.89727 23.1426 5.80269C23.1426 4.72458 22.213 3.84399 21.0661 3.84399C19.928 3.84399 18.9983 4.73282 18.9983 5.80269C18.9983 6.89727 19.928 7.77784 21.0661 7.77784Z" fill="#262626" />
</svg>