<svg width="24" height="12" viewBox="0 0 24 12" fill="none" xmlns="http://www.w3.org/2000/svg">
  <path d="M12.004 11.9766C16.6595 11.9766 19.9725 10.1731 19.9725 7.52637V3.62265C19.9725 1.28042 17.1541 0 12.004 0C6.84596 0 4.02748 1.28042 4.02748 3.62265V7.52637C4.02748 10.1731 7.34051 11.9766 12.004 11.9766ZM7.74877 4.3097C7.74877 3.95837 8.03926 3.66168 8.40042 3.66168H15.6075C15.9765 3.66168 16.2669 3.95837 16.2669 4.3097C16.2669 4.66884 15.9765 4.96552 15.6075 4.96552H8.40042C8.03926 4.96552 7.74877 4.66884 7.74877 4.3097ZM7.74877 7.32337C7.74877 6.96421 8.03926 6.66753 8.40042 6.66753H15.6075C15.9765 6.66753 16.2669 6.96421 16.2669 7.32337C16.2669 7.68247 15.9765 7.97135 15.6075 7.97135H8.40042C8.03926 7.97135 7.74877 7.68247 7.74877 7.32337ZM0 5.12948C0 7.6435 1.8371 9.40016 4.59274 9.40016H5.10305V8.14317H4.46713C2.55937 8.14317 1.26399 6.87833 1.26399 5.12948C1.26399 4.26286 1.72718 3.73195 2.56722 3.73195H4.78116V2.47495H2.56722C0.942101 2.47495 0 3.4743 0 5.12948ZM24 5.12948C24 3.4743 23.0658 2.47495 21.4328 2.47495H19.2189V3.73195H21.4328C22.2728 3.73195 22.736 4.26286 22.736 5.12948C22.736 6.87833 21.4406 8.14317 19.5329 8.14317H18.8969V9.40016H19.4151C22.1629 9.40016 24 7.6435 24 5.12948Z" fill="#262626" />
</svg>