<svg width="477" height="518" viewBox="0 0 477 518" fill="none" xmlns="http://www.w3.org/2000/svg">
  <g opacity="0.9">
    <g filter="url(#filter0_d_157_29965)">
      <path d="M142.595 384.257C155.86 383.35 165.879 371.862 164.972 358.597C164.066 345.332 152.577 335.313 139.312 336.22C126.047 337.126 116.028 348.615 116.935 361.88C117.842 375.145 129.33 385.164 142.595 384.257Z" fill="#FFF5F0" fill-opacity="0.5" shape-rendering="crispEdges" />
      <path d="M142.664 385.255C156.48 384.31 166.914 372.345 165.97 358.529C165.026 344.713 153.06 334.278 139.244 335.222C125.428 336.166 114.993 348.132 115.937 361.948C116.882 375.764 128.847 386.199 142.664 385.255Z" stroke="#262626" stroke-width="2" shape-rendering="crispEdges" />
    </g>
    <g filter="url(#filter1_d_157_29965)">
      <path d="M211.595 426.842C224.407 426.842 234.794 416.456 234.794 403.644C234.794 390.832 224.407 380.445 211.595 380.445C198.783 380.445 188.396 390.832 188.396 403.644C188.396 416.456 198.783 426.842 211.595 426.842Z" fill="#FFF5F0" fill-opacity="0.5" shape-rendering="crispEdges" />
      <path d="M211.595 427.842C224.96 427.842 235.794 417.008 235.794 403.644C235.794 390.279 224.96 379.445 211.595 379.445C198.231 379.445 187.396 390.279 187.396 403.644C187.396 417.008 198.231 427.842 211.595 427.842Z" stroke="#262626" stroke-width="2" shape-rendering="crispEdges" />
    </g>
    <g filter="url(#filter2_d_157_29965)">
      <path d="M269.102 410.407C269.102 398.072 279.089 388.085 291.424 388.085C303.759 388.085 313.747 398.072 313.747 410.407C313.747 422.742 303.759 432.73 291.424 432.73C279.089 432.73 269.102 422.742 269.102 410.407Z" fill="#FFF5F0" fill-opacity="0.5" shape-rendering="crispEdges" />
      <path d="M291.424 387.085C278.537 387.085 268.102 397.52 268.102 410.407C268.102 423.295 278.537 433.73 291.424 433.73C304.312 433.73 314.747 423.295 314.747 410.407C314.747 397.52 304.312 387.085 291.424 387.085Z" stroke="#262626" stroke-width="2" shape-rendering="crispEdges" />
    </g>
    <g filter="url(#filter3_d_157_29965)">
      <path d="M345.601 380.655C345.601 368.811 355.202 359.174 367.082 359.174C378.961 359.174 388.563 368.776 388.563 380.655C388.563 392.535 378.961 402.137 367.082 402.137C355.202 402.137 345.601 392.535 345.601 380.655Z" fill="#FFF5F0" fill-opacity="0.5" shape-rendering="crispEdges" />
      <path d="M367.082 358.174C354.649 358.174 344.601 368.259 344.601 380.655C344.601 393.087 354.65 403.137 367.082 403.137C379.514 403.137 389.563 393.087 389.563 380.655C389.563 368.223 379.514 358.174 367.082 358.174Z" stroke="#262626" stroke-width="2" shape-rendering="crispEdges" />
    </g>
    <g filter="url(#filter4_d_157_29965)">
      <path d="M402.896 318.033C402.896 306.644 412.112 297.428 423.501 297.428C434.89 297.428 444.107 306.644 444.107 318.033C444.107 329.422 434.89 338.639 423.501 338.639C412.112 338.639 402.896 329.422 402.896 318.033Z" fill="#FFF5F0" fill-opacity="0.5" shape-rendering="crispEdges" />
      <path d="M423.501 296.428C411.56 296.428 401.896 306.092 401.896 318.033C401.896 329.975 411.56 339.639 423.501 339.639C435.443 339.639 445.107 329.975 445.107 318.033C445.107 306.092 435.443 296.428 423.501 296.428Z" stroke="#262626" stroke-width="2" shape-rendering="crispEdges" />
    </g>
    <g filter="url(#filter5_d_157_29965)">
      <path d="M428.163 240.833C428.163 229.935 436.993 221.104 447.892 221.104C458.79 221.104 467.621 229.935 467.621 240.833C467.621 251.732 458.79 260.563 447.892 260.563C436.993 260.563 428.163 251.732 428.163 240.833Z" fill="#FFF5F0" fill-opacity="0.5" shape-rendering="crispEdges" />
      <path d="M447.892 220.104C436.441 220.104 427.163 229.383 427.163 240.833C427.163 252.284 436.441 261.563 447.892 261.563C459.343 261.563 468.621 252.284 468.621 240.833C468.621 229.383 459.343 220.104 447.892 220.104Z" stroke="#262626" stroke-width="2" shape-rendering="crispEdges" />
    </g>
    <g filter="url(#filter6_d_157_29965)">
      <path d="M420.523 161.005C420.523 150.562 428.969 142.117 439.412 142.117C449.855 142.117 458.3 150.562 458.3 161.005C458.3 171.448 449.855 179.893 439.412 179.893C428.969 179.893 420.523 171.448 420.523 161.005Z" fill="#FFF5F0" fill-opacity="0.5" shape-rendering="crispEdges" />
      <path d="M439.412 141.117C428.417 141.117 419.523 150.01 419.523 161.005C419.523 172 428.417 180.893 439.412 180.893C450.407 180.893 459.3 172 459.3 161.005C459.3 150.01 450.407 141.117 439.412 141.117Z" stroke="#262626" stroke-width="2" shape-rendering="crispEdges" />
    </g>
    <g filter="url(#filter7_d_157_29965)">
      <path d="M379.978 89.4468C379.978 79.4945 388.038 71.4346 397.99 71.4346C407.942 71.4346 416.002 79.4945 416.002 89.4468C416.002 99.399 407.942 107.459 397.99 107.459C388.038 107.459 379.978 99.399 379.978 89.4468Z" fill="#FFF5F0" fill-opacity="0.5" shape-rendering="crispEdges" />
      <path d="M397.99 70.4346C387.485 70.4346 378.978 78.9422 378.978 89.4468C378.978 99.9513 387.485 108.459 397.99 108.459C408.495 108.459 417.002 99.9513 417.002 89.4468C417.002 78.9422 408.495 70.4346 397.99 70.4346Z" stroke="#262626" stroke-width="2" shape-rendering="crispEdges" />
    </g>
    <g filter="url(#filter8_d_157_29965)">
      <path d="M313.291 39.4752C313.291 30.0136 320.965 22.3391 330.427 22.3391C339.888 22.3391 347.563 30.0136 347.563 39.4752C347.563 48.9369 339.888 56.6113 330.427 56.6113C320.965 56.6113 313.291 48.9369 313.291 39.4752Z" fill="#FFF5F0" fill-opacity="0.5" shape-rendering="crispEdges" />
      <path d="M330.427 21.3391C320.413 21.3391 312.291 29.4613 312.291 39.4752C312.291 49.4892 320.413 57.6113 330.427 57.6113C340.441 57.6113 348.563 49.4892 348.563 39.4752C348.563 29.4613 340.441 21.3391 330.427 21.3391Z" stroke="#262626" stroke-width="2" shape-rendering="crispEdges" />
    </g>
    <g filter="url(#filter9_d_157_29965)">
      <path d="M235.985 19.0451C235.985 10.039 243.274 2.75 252.28 2.75C261.286 2.75 268.575 10.039 268.575 19.0451C268.575 28.0512 261.286 35.3401 252.28 35.3401C243.274 35.3401 235.985 28.0512 235.985 19.0451Z" fill="#FFF5F0" fill-opacity="0.5" shape-rendering="crispEdges" />
      <path d="M252.28 1.75C242.722 1.75 234.985 9.48669 234.985 19.0451C234.985 28.6035 242.722 36.3401 252.28 36.3401C261.838 36.3401 269.575 28.6034 269.575 19.0451C269.575 9.48671 261.838 1.75 252.28 1.75Z" stroke="#262626" stroke-width="2" shape-rendering="crispEdges" />
    </g>
    <g filter="url(#filter10_d_157_29965)">
      <path d="M156.998 28.2264C156.998 19.7109 163.901 12.8074 172.417 12.8074C180.932 12.8074 187.836 19.7109 187.836 28.2264C187.836 36.7419 180.932 43.6454 172.417 43.6454C163.901 43.6454 156.998 36.7419 156.998 28.2264Z" fill="#FFF5F0" fill-opacity="0.5" shape-rendering="crispEdges" />
      <path d="M172.417 11.8074C163.349 11.8074 155.998 19.1586 155.998 28.2264C155.998 37.2941 163.349 44.6454 172.417 44.6454C181.485 44.6454 188.836 37.2942 188.836 28.2264C188.836 19.1586 181.485 11.8074 172.417 11.8074Z" stroke="#262626" stroke-width="2" shape-rendering="crispEdges" />
    </g>
    <g filter="url(#filter11_d_157_29965)">
      <path d="M85.1953 67.0538C85.1953 58.9939 91.7132 52.4758 99.7732 52.4758C107.833 52.4758 114.351 58.9939 114.351 67.0538C114.351 75.1137 107.833 81.6317 99.7732 81.6317C91.7132 81.6317 85.1953 75.1137 85.1953 67.0538Z" fill="#FFF5F0" fill-opacity="0.5" shape-rendering="crispEdges" />
      <path d="M99.7732 51.4758C91.161 51.4758 84.1953 58.4416 84.1953 67.0538C84.1953 75.666 91.161 82.6317 99.7732 82.6317C108.385 82.6317 115.351 75.666 115.351 67.0538C115.351 58.4416 108.385 51.4758 99.7732 51.4758Z" stroke="#262626" stroke-width="2" shape-rendering="crispEdges" />
    </g>
    <g filter="url(#filter12_d_157_29965)">
      <path d="M31.0525 131.534C31.0525 123.964 37.185 117.832 44.7543 117.832C52.3236 117.832 58.4563 123.964 58.4563 131.534C58.4563 139.103 52.3236 145.236 44.7543 145.236C37.185 145.236 31.0525 139.103 31.0525 131.534Z" fill="#FFF5F0" fill-opacity="0.5" shape-rendering="crispEdges" />
      <path d="M44.7543 116.832C36.6327 116.832 30.0525 123.412 30.0525 131.534C30.0525 139.655 36.6327 146.236 44.7543 146.236C52.8759 146.236 59.4563 139.655 59.4563 131.534C59.4563 123.412 52.8759 116.832 44.7543 116.832Z" stroke="#262626" stroke-width="2" shape-rendering="crispEdges" />
    </g>
    <g filter="url(#filter13_d_157_29965)">
      <path d="M3.29932 207.752C3.29932 200.674 9.04652 194.927 16.1252 194.927C23.204 194.927 28.9509 200.674 28.9509 207.752C28.9509 214.831 23.204 220.578 16.1252 220.578C9.04652 220.578 3.29932 214.831 3.29932 207.752Z" fill="#FFF5F0" fill-opacity="0.5" shape-rendering="crispEdges" />
      <path d="M16.1252 193.927C8.49424 193.927 2.29932 200.121 2.29932 207.752C2.29932 215.383 8.49424 221.578 16.1252 221.578C23.7563 221.578 29.9509 215.383 29.9509 207.752C29.9509 200.121 23.7563 193.927 16.1252 193.927Z" stroke="#262626" stroke-width="2" shape-rendering="crispEdges" />
    </g>
    <g filter="url(#filter14_d_157_29965)">
      <path d="M2.2124 288.071C2.2124 281.448 7.57416 276.087 14.1973 276.087C20.8205 276.087 26.182 281.448 26.182 288.071C26.182 294.695 20.8205 300.056 14.1973 300.056C7.57416 300.056 2.2124 294.695 2.2124 288.071Z" fill="#FFF5F0" fill-opacity="0.5" shape-rendering="crispEdges" />
      <path d="M14.1973 275.087C7.02189 275.087 1.2124 280.896 1.2124 288.071C1.2124 295.247 7.02189 301.056 14.1973 301.056C21.3728 301.056 27.182 295.247 27.182 288.071C27.182 280.896 21.3728 275.087 14.1973 275.087Z" stroke="#262626" stroke-width="2" shape-rendering="crispEdges" />
    </g>
    <g filter="url(#filter15_d_157_29965)">
      <path d="M27.8291 365.342C27.8291 359.209 32.8054 354.233 38.9379 354.233C45.0705 354.233 50.0466 359.209 50.0466 365.342C50.0466 371.474 45.0705 376.451 38.9379 376.451C32.8054 376.451 27.8291 371.474 27.8291 365.342Z" fill="#FFF5F0" fill-opacity="0.5" shape-rendering="crispEdges" />
      <path d="M38.9379 353.233C32.2531 353.233 26.8291 358.657 26.8291 365.342C26.8291 372.027 32.2531 377.451 38.9379 377.451C45.6228 377.451 51.0466 372.027 51.0466 365.342C51.0466 358.657 45.6228 353.233 38.9379 353.233Z" stroke="#262626" stroke-width="2" shape-rendering="crispEdges" />
    </g>
    <g filter="url(#filter16_d_157_29965)">
      <path d="M80.0083 432.274C80.0083 426.632 84.5989 422.042 90.2408 422.042C95.8828 422.042 100.474 426.632 100.474 432.274C100.474 437.916 95.8828 442.507 90.2408 442.507C84.5989 442.507 80.0083 437.916 80.0083 432.274Z" fill="#FFF5F0" fill-opacity="0.5" shape-rendering="crispEdges" />
      <path d="M90.2408 421.042C84.0466 421.042 79.0083 426.08 79.0083 432.274C79.0083 438.468 84.0466 443.507 90.2408 443.507C96.4351 443.507 101.474 438.468 101.474 432.274C101.474 426.08 96.4351 421.042 90.2408 421.042Z" stroke="#262626" stroke-width="2" shape-rendering="crispEdges" />
    </g>
    <g filter="url(#filter17_d_157_29965)">
      <path d="M150.305 478.916C150.305 473.73 154.51 469.525 159.696 469.525C164.883 469.525 169.088 473.73 169.088 478.916C169.088 484.103 164.883 488.308 159.696 488.308C154.51 488.308 150.305 484.103 150.305 478.916Z" fill="#FFF5F0" fill-opacity="0.5" shape-rendering="crispEdges" />
      <path d="M159.696 468.525C153.958 468.525 149.305 473.178 149.305 478.916C149.305 484.655 153.958 489.308 159.696 489.308C165.435 489.308 170.088 484.655 170.088 478.916C170.088 473.178 165.435 468.525 159.696 468.525Z" stroke="#262626" stroke-width="2" shape-rendering="crispEdges" />
    </g>
    <g filter="url(#filter18_d_157_29965)">
      <path d="M229.012 501.484C229.012 496.789 232.831 492.969 237.527 492.969C242.223 492.969 246.043 496.789 246.043 501.484C246.043 506.18 242.223 510 237.527 510C232.831 510 229.012 506.18 229.012 501.484Z" fill="#FFF5F0" fill-opacity="0.5" shape-rendering="crispEdges" />
      <path d="M237.527 491.969C232.279 491.969 228.012 496.236 228.012 501.484C228.012 506.732 232.279 511 237.527 511C242.775 511 247.043 506.732 247.043 501.484C247.043 496.236 242.775 491.969 237.527 491.969Z" stroke="#262626" stroke-width="2" shape-rendering="crispEdges" />
    </g>
    <g filter="url(#filter19_d_157_29965)">
      <path d="M317.917 507.687C322.136 507.687 325.556 504.267 325.556 500.048C325.556 495.829 322.136 492.408 317.917 492.408C313.698 492.408 310.277 495.829 310.277 500.048C310.277 504.267 313.698 507.687 317.917 507.687Z" fill="#FFF5F0" fill-opacity="0.5" shape-rendering="crispEdges" />
      <path d="M317.917 508.687C322.688 508.687 326.556 504.819 326.556 500.048C326.556 495.276 322.688 491.408 317.917 491.408C313.145 491.408 309.277 495.276 309.277 500.048C309.277 504.819 313.145 508.687 317.917 508.687Z" stroke="#262626" stroke-width="2" shape-rendering="crispEdges" />
    </g>
    <g filter="url(#filter20_d_157_29965)">
      <path d="M388.249 474.536C388.249 470.786 391.297 467.738 395.047 467.738C398.797 467.738 401.845 470.786 401.845 474.536C401.845 478.286 398.797 481.334 395.047 481.334C391.297 481.334 388.249 478.286 388.249 474.536Z" fill="#FFF5F0" fill-opacity="0.5" shape-rendering="crispEdges" />
      <path d="M395.047 466.738C390.745 466.738 387.249 470.234 387.249 474.536C387.249 478.838 390.745 482.334 395.047 482.334C399.349 482.334 402.845 478.838 402.845 474.536C402.845 470.234 399.349 466.738 395.047 466.738Z" stroke="#262626" stroke-width="2" shape-rendering="crispEdges" />
    </g>
    <g filter="url(#filter21_d_157_29965)">
      <path d="M457.144 425.02C457.144 421.761 459.807 419.098 463.066 419.098C466.325 419.098 468.988 421.761 468.988 425.02C468.988 428.279 466.325 430.943 463.066 430.943C459.807 430.943 457.144 428.279 457.144 425.02Z" fill="#FFF5F0" fill-opacity="0.5" shape-rendering="crispEdges" />
      <path d="M463.066 418.098C459.255 418.098 456.144 421.209 456.144 425.02C456.144 428.832 459.255 431.943 463.066 431.943C466.877 431.943 469.988 428.832 469.988 425.02C469.988 421.209 466.877 418.098 463.066 418.098Z" stroke="#262626" stroke-width="2" shape-rendering="crispEdges" />
    </g>
  </g>
  <defs>
    <filter id="filter0_d_157_29965" x="114.878" y="334.163" width="58.1514" height="58.1514" filterUnits="userSpaceOnUse" color-interpolation-filters="sRGB">
      <feFlood flood-opacity="0" result="BackgroundImageFix" />
      <feColorMatrix in="SourceAlpha" type="matrix" values="0 0 0 0 0 0 0 0 0 0 0 0 0 0 0 0 0 0 127 0" result="hardAlpha" />
      <feOffset dx="6" dy="6" />
      <feComposite in2="hardAlpha" operator="out" />
      <feColorMatrix type="matrix" values="0 0 0 0 0.0980392 0 0 0 0 0.0980392 0 0 0 0 0.0980392 0 0 0 1 0" />
      <feBlend mode="normal" in2="BackgroundImageFix" result="effect1_dropShadow_157_29965" />
      <feBlend mode="normal" in="SourceGraphic" in2="effect1_dropShadow_157_29965" result="shape" />
    </filter>
    <filter id="filter1_d_157_29965" x="186.396" y="378.445" width="56.397" height="56.3971" filterUnits="userSpaceOnUse" color-interpolation-filters="sRGB">
      <feFlood flood-opacity="0" result="BackgroundImageFix" />
      <feColorMatrix in="SourceAlpha" type="matrix" values="0 0 0 0 0 0 0 0 0 0 0 0 0 0 0 0 0 0 127 0" result="hardAlpha" />
      <feOffset dx="6" dy="6" />
      <feComposite in2="hardAlpha" operator="out" />
      <feColorMatrix type="matrix" values="0 0 0 0 0.0980392 0 0 0 0 0.0980392 0 0 0 0 0.0980392 0 0 0 1 0" />
      <feBlend mode="normal" in2="BackgroundImageFix" result="effect1_dropShadow_157_29965" />
      <feBlend mode="normal" in="SourceGraphic" in2="effect1_dropShadow_157_29965" result="shape" />
    </filter>
    <filter id="filter2_d_157_29965" x="267.102" y="386.085" width="54.645" height="54.645" filterUnits="userSpaceOnUse" color-interpolation-filters="sRGB">
      <feFlood flood-opacity="0" result="BackgroundImageFix" />
      <feColorMatrix in="SourceAlpha" type="matrix" values="0 0 0 0 0 0 0 0 0 0 0 0 0 0 0 0 0 0 127 0" result="hardAlpha" />
      <feOffset dx="6" dy="6" />
      <feComposite in2="hardAlpha" operator="out" />
      <feColorMatrix type="matrix" values="0 0 0 0 0.0980392 0 0 0 0 0.0980392 0 0 0 0 0.0980392 0 0 0 1 0" />
      <feBlend mode="normal" in2="BackgroundImageFix" result="effect1_dropShadow_157_29965" />
      <feBlend mode="normal" in="SourceGraphic" in2="effect1_dropShadow_157_29965" result="shape" />
    </filter>
    <filter id="filter3_d_157_29965" x="343.601" y="357.174" width="52.9629" height="52.9629" filterUnits="userSpaceOnUse" color-interpolation-filters="sRGB">
      <feFlood flood-opacity="0" result="BackgroundImageFix" />
      <feColorMatrix in="SourceAlpha" type="matrix" values="0 0 0 0 0 0 0 0 0 0 0 0 0 0 0 0 0 0 127 0" result="hardAlpha" />
      <feOffset dx="6" dy="6" />
      <feComposite in2="hardAlpha" operator="out" />
      <feColorMatrix type="matrix" values="0 0 0 0 0.0980392 0 0 0 0 0.0980392 0 0 0 0 0.0980392 0 0 0 1 0" />
      <feBlend mode="normal" in2="BackgroundImageFix" result="effect1_dropShadow_157_29965" />
      <feBlend mode="normal" in="SourceGraphic" in2="effect1_dropShadow_157_29965" result="shape" />
    </filter>
    <filter id="filter4_d_157_29965" x="400.896" y="295.428" width="51.2109" height="51.2108" filterUnits="userSpaceOnUse" color-interpolation-filters="sRGB">
      <feFlood flood-opacity="0" result="BackgroundImageFix" />
      <feColorMatrix in="SourceAlpha" type="matrix" values="0 0 0 0 0 0 0 0 0 0 0 0 0 0 0 0 0 0 127 0" result="hardAlpha" />
      <feOffset dx="6" dy="6" />
      <feComposite in2="hardAlpha" operator="out" />
      <feColorMatrix type="matrix" values="0 0 0 0 0.0980392 0 0 0 0 0.0980392 0 0 0 0 0.0980392 0 0 0 1 0" />
      <feBlend mode="normal" in2="BackgroundImageFix" result="effect1_dropShadow_157_29965" />
      <feBlend mode="normal" in="SourceGraphic" in2="effect1_dropShadow_157_29965" result="shape" />
    </filter>
    <filter id="filter5_d_157_29965" x="426.163" y="219.104" width="49.4585" height="49.4586" filterUnits="userSpaceOnUse" color-interpolation-filters="sRGB">
      <feFlood flood-opacity="0" result="BackgroundImageFix" />
      <feColorMatrix in="SourceAlpha" type="matrix" values="0 0 0 0 0 0 0 0 0 0 0 0 0 0 0 0 0 0 127 0" result="hardAlpha" />
      <feOffset dx="6" dy="6" />
      <feComposite in2="hardAlpha" operator="out" />
      <feColorMatrix type="matrix" values="0 0 0 0 0.0980392 0 0 0 0 0.0980392 0 0 0 0 0.0980392 0 0 0 1 0" />
      <feBlend mode="normal" in2="BackgroundImageFix" result="effect1_dropShadow_157_29965" />
      <feBlend mode="normal" in="SourceGraphic" in2="effect1_dropShadow_157_29965" result="shape" />
    </filter>
    <filter id="filter6_d_157_29965" x="418.523" y="140.117" width="47.7769" height="47.7765" filterUnits="userSpaceOnUse" color-interpolation-filters="sRGB">
      <feFlood flood-opacity="0" result="BackgroundImageFix" />
      <feColorMatrix in="SourceAlpha" type="matrix" values="0 0 0 0 0 0 0 0 0 0 0 0 0 0 0 0 0 0 127 0" result="hardAlpha" />
      <feOffset dx="6" dy="6" />
      <feComposite in2="hardAlpha" operator="out" />
      <feColorMatrix type="matrix" values="0 0 0 0 0.0980392 0 0 0 0 0.0980392 0 0 0 0 0.0980392 0 0 0 1 0" />
      <feBlend mode="normal" in2="BackgroundImageFix" result="effect1_dropShadow_157_29965" />
      <feBlend mode="normal" in="SourceGraphic" in2="effect1_dropShadow_157_29965" result="shape" />
    </filter>
    <filter id="filter7_d_157_29965" x="377.978" y="69.4346" width="46.0244" height="46.0244" filterUnits="userSpaceOnUse" color-interpolation-filters="sRGB">
      <feFlood flood-opacity="0" result="BackgroundImageFix" />
      <feColorMatrix in="SourceAlpha" type="matrix" values="0 0 0 0 0 0 0 0 0 0 0 0 0 0 0 0 0 0 127 0" result="hardAlpha" />
      <feOffset dx="6" dy="6" />
      <feComposite in2="hardAlpha" operator="out" />
      <feColorMatrix type="matrix" values="0 0 0 0 0.0980392 0 0 0 0 0.0980392 0 0 0 0 0.0980392 0 0 0 1 0" />
      <feBlend mode="normal" in2="BackgroundImageFix" result="effect1_dropShadow_157_29965" />
      <feBlend mode="normal" in="SourceGraphic" in2="effect1_dropShadow_157_29965" result="shape" />
    </filter>
    <filter id="filter8_d_157_29965" x="311.291" y="20.3391" width="44.2725" height="44.2722" filterUnits="userSpaceOnUse" color-interpolation-filters="sRGB">
      <feFlood flood-opacity="0" result="BackgroundImageFix" />
      <feColorMatrix in="SourceAlpha" type="matrix" values="0 0 0 0 0 0 0 0 0 0 0 0 0 0 0 0 0 0 127 0" result="hardAlpha" />
      <feOffset dx="6" dy="6" />
      <feComposite in2="hardAlpha" operator="out" />
      <feColorMatrix type="matrix" values="0 0 0 0 0.0980392 0 0 0 0 0.0980392 0 0 0 0 0.0980392 0 0 0 1 0" />
      <feBlend mode="normal" in2="BackgroundImageFix" result="effect1_dropShadow_157_29965" />
      <feBlend mode="normal" in="SourceGraphic" in2="effect1_dropShadow_157_29965" result="shape" />
    </filter>
    <filter id="filter9_d_157_29965" x="233.985" y="0.75" width="42.5903" height="42.5901" filterUnits="userSpaceOnUse" color-interpolation-filters="sRGB">
      <feFlood flood-opacity="0" result="BackgroundImageFix" />
      <feColorMatrix in="SourceAlpha" type="matrix" values="0 0 0 0 0 0 0 0 0 0 0 0 0 0 0 0 0 0 127 0" result="hardAlpha" />
      <feOffset dx="6" dy="6" />
      <feComposite in2="hardAlpha" operator="out" />
      <feColorMatrix type="matrix" values="0 0 0 0 0.0980392 0 0 0 0 0.0980392 0 0 0 0 0.0980392 0 0 0 1 0" />
      <feBlend mode="normal" in2="BackgroundImageFix" result="effect1_dropShadow_157_29965" />
      <feBlend mode="normal" in="SourceGraphic" in2="effect1_dropShadow_157_29965" result="shape" />
    </filter>
    <filter id="filter10_d_157_29965" x="154.998" y="10.8074" width="40.8379" height="40.8379" filterUnits="userSpaceOnUse" color-interpolation-filters="sRGB">
      <feFlood flood-opacity="0" result="BackgroundImageFix" />
      <feColorMatrix in="SourceAlpha" type="matrix" values="0 0 0 0 0 0 0 0 0 0 0 0 0 0 0 0 0 0 127 0" result="hardAlpha" />
      <feOffset dx="6" dy="6" />
      <feComposite in2="hardAlpha" operator="out" />
      <feColorMatrix type="matrix" values="0 0 0 0 0.0980392 0 0 0 0 0.0980392 0 0 0 0 0.0980392 0 0 0 1 0" />
      <feBlend mode="normal" in2="BackgroundImageFix" result="effect1_dropShadow_157_29965" />
      <feBlend mode="normal" in="SourceGraphic" in2="effect1_dropShadow_157_29965" result="shape" />
    </filter>
    <filter id="filter11_d_157_29965" x="83.1953" y="50.4758" width="39.1558" height="39.156" filterUnits="userSpaceOnUse" color-interpolation-filters="sRGB">
      <feFlood flood-opacity="0" result="BackgroundImageFix" />
      <feColorMatrix in="SourceAlpha" type="matrix" values="0 0 0 0 0 0 0 0 0 0 0 0 0 0 0 0 0 0 127 0" result="hardAlpha" />
      <feOffset dx="6" dy="6" />
      <feComposite in2="hardAlpha" operator="out" />
      <feColorMatrix type="matrix" values="0 0 0 0 0.0980392 0 0 0 0 0.0980392 0 0 0 0 0.0980392 0 0 0 1 0" />
      <feBlend mode="normal" in2="BackgroundImageFix" result="effect1_dropShadow_157_29965" />
      <feBlend mode="normal" in="SourceGraphic" in2="effect1_dropShadow_157_29965" result="shape" />
    </filter>
    <filter id="filter12_d_157_29965" x="29.0525" y="115.832" width="37.4038" height="37.4038" filterUnits="userSpaceOnUse" color-interpolation-filters="sRGB">
      <feFlood flood-opacity="0" result="BackgroundImageFix" />
      <feColorMatrix in="SourceAlpha" type="matrix" values="0 0 0 0 0 0 0 0 0 0 0 0 0 0 0 0 0 0 127 0" result="hardAlpha" />
      <feOffset dx="6" dy="6" />
      <feComposite in2="hardAlpha" operator="out" />
      <feColorMatrix type="matrix" values="0 0 0 0 0.0980392 0 0 0 0 0.0980392 0 0 0 0 0.0980392 0 0 0 1 0" />
      <feBlend mode="normal" in2="BackgroundImageFix" result="effect1_dropShadow_157_29965" />
      <feBlend mode="normal" in="SourceGraphic" in2="effect1_dropShadow_157_29965" result="shape" />
    </filter>
    <filter id="filter13_d_157_29965" x="1.29932" y="192.927" width="35.6516" height="35.6516" filterUnits="userSpaceOnUse" color-interpolation-filters="sRGB">
      <feFlood flood-opacity="0" result="BackgroundImageFix" />
      <feColorMatrix in="SourceAlpha" type="matrix" values="0 0 0 0 0 0 0 0 0 0 0 0 0 0 0 0 0 0 127 0" result="hardAlpha" />
      <feOffset dx="6" dy="6" />
      <feComposite in2="hardAlpha" operator="out" />
      <feColorMatrix type="matrix" values="0 0 0 0 0.0980392 0 0 0 0 0.0980392 0 0 0 0 0.0980392 0 0 0 1 0" />
      <feBlend mode="normal" in2="BackgroundImageFix" result="effect1_dropShadow_157_29965" />
      <feBlend mode="normal" in="SourceGraphic" in2="effect1_dropShadow_157_29965" result="shape" />
    </filter>
    <filter id="filter14_d_157_29965" x="0.212402" y="274.087" width="33.9697" height="33.9695" filterUnits="userSpaceOnUse" color-interpolation-filters="sRGB">
      <feFlood flood-opacity="0" result="BackgroundImageFix" />
      <feColorMatrix in="SourceAlpha" type="matrix" values="0 0 0 0 0 0 0 0 0 0 0 0 0 0 0 0 0 0 127 0" result="hardAlpha" />
      <feOffset dx="6" dy="6" />
      <feComposite in2="hardAlpha" operator="out" />
      <feColorMatrix type="matrix" values="0 0 0 0 0.0980392 0 0 0 0 0.0980392 0 0 0 0 0.0980392 0 0 0 1 0" />
      <feBlend mode="normal" in2="BackgroundImageFix" result="effect1_dropShadow_157_29965" />
      <feBlend mode="normal" in="SourceGraphic" in2="effect1_dropShadow_157_29965" result="shape" />
    </filter>
    <filter id="filter15_d_157_29965" x="25.8291" y="352.233" width="32.2175" height="32.2174" filterUnits="userSpaceOnUse" color-interpolation-filters="sRGB">
      <feFlood flood-opacity="0" result="BackgroundImageFix" />
      <feColorMatrix in="SourceAlpha" type="matrix" values="0 0 0 0 0 0 0 0 0 0 0 0 0 0 0 0 0 0 127 0" result="hardAlpha" />
      <feOffset dx="6" dy="6" />
      <feComposite in2="hardAlpha" operator="out" />
      <feColorMatrix type="matrix" values="0 0 0 0 0.0980392 0 0 0 0 0.0980392 0 0 0 0 0.0980392 0 0 0 1 0" />
      <feBlend mode="normal" in2="BackgroundImageFix" result="effect1_dropShadow_157_29965" />
      <feBlend mode="normal" in="SourceGraphic" in2="effect1_dropShadow_157_29965" result="shape" />
    </filter>
    <filter id="filter16_d_157_29965" x="78.0083" y="420.042" width="30.4653" height="30.4652" filterUnits="userSpaceOnUse" color-interpolation-filters="sRGB">
      <feFlood flood-opacity="0" result="BackgroundImageFix" />
      <feColorMatrix in="SourceAlpha" type="matrix" values="0 0 0 0 0 0 0 0 0 0 0 0 0 0 0 0 0 0 127 0" result="hardAlpha" />
      <feOffset dx="6" dy="6" />
      <feComposite in2="hardAlpha" operator="out" />
      <feColorMatrix type="matrix" values="0 0 0 0 0.0980392 0 0 0 0 0.0980392 0 0 0 0 0.0980392 0 0 0 1 0" />
      <feBlend mode="normal" in2="BackgroundImageFix" result="effect1_dropShadow_157_29965" />
      <feBlend mode="normal" in="SourceGraphic" in2="effect1_dropShadow_157_29965" result="shape" />
    </filter>
    <filter id="filter17_d_157_29965" x="148.305" y="467.525" width="28.7832" height="28.7831" filterUnits="userSpaceOnUse" color-interpolation-filters="sRGB">
      <feFlood flood-opacity="0" result="BackgroundImageFix" />
      <feColorMatrix in="SourceAlpha" type="matrix" values="0 0 0 0 0 0 0 0 0 0 0 0 0 0 0 0 0 0 127 0" result="hardAlpha" />
      <feOffset dx="6" dy="6" />
      <feComposite in2="hardAlpha" operator="out" />
      <feColorMatrix type="matrix" values="0 0 0 0 0.0980392 0 0 0 0 0.0980392 0 0 0 0 0.0980392 0 0 0 1 0" />
      <feBlend mode="normal" in2="BackgroundImageFix" result="effect1_dropShadow_157_29965" />
      <feBlend mode="normal" in="SourceGraphic" in2="effect1_dropShadow_157_29965" result="shape" />
    </filter>
    <filter id="filter18_d_157_29965" x="227.012" y="490.969" width="27.0308" height="27.031" filterUnits="userSpaceOnUse" color-interpolation-filters="sRGB">
      <feFlood flood-opacity="0" result="BackgroundImageFix" />
      <feColorMatrix in="SourceAlpha" type="matrix" values="0 0 0 0 0 0 0 0 0 0 0 0 0 0 0 0 0 0 127 0" result="hardAlpha" />
      <feOffset dx="6" dy="6" />
      <feComposite in2="hardAlpha" operator="out" />
      <feColorMatrix type="matrix" values="0 0 0 0 0.0980392 0 0 0 0 0.0980392 0 0 0 0 0.0980392 0 0 0 1 0" />
      <feBlend mode="normal" in2="BackgroundImageFix" result="effect1_dropShadow_157_29965" />
      <feBlend mode="normal" in="SourceGraphic" in2="effect1_dropShadow_157_29965" result="shape" />
    </filter>
    <filter id="filter19_d_157_29965" x="308.277" y="490.408" width="25.2788" height="25.2788" filterUnits="userSpaceOnUse" color-interpolation-filters="sRGB">
      <feFlood flood-opacity="0" result="BackgroundImageFix" />
      <feColorMatrix in="SourceAlpha" type="matrix" values="0 0 0 0 0 0 0 0 0 0 0 0 0 0 0 0 0 0 127 0" result="hardAlpha" />
      <feOffset dx="6" dy="6" />
      <feComposite in2="hardAlpha" operator="out" />
      <feColorMatrix type="matrix" values="0 0 0 0 0.0980392 0 0 0 0 0.0980392 0 0 0 0 0.0980392 0 0 0 1 0" />
      <feBlend mode="normal" in2="BackgroundImageFix" result="effect1_dropShadow_157_29965" />
      <feBlend mode="normal" in="SourceGraphic" in2="effect1_dropShadow_157_29965" result="shape" />
    </filter>
    <filter id="filter20_d_157_29965" x="386.249" y="465.738" width="23.5967" height="23.5968" filterUnits="userSpaceOnUse" color-interpolation-filters="sRGB">
      <feFlood flood-opacity="0" result="BackgroundImageFix" />
      <feColorMatrix in="SourceAlpha" type="matrix" values="0 0 0 0 0 0 0 0 0 0 0 0 0 0 0 0 0 0 127 0" result="hardAlpha" />
      <feOffset dx="6" dy="6" />
      <feComposite in2="hardAlpha" operator="out" />
      <feColorMatrix type="matrix" values="0 0 0 0 0.0980392 0 0 0 0 0.0980392 0 0 0 0 0.0980392 0 0 0 1 0" />
      <feBlend mode="normal" in2="BackgroundImageFix" result="effect1_dropShadow_157_29965" />
      <feBlend mode="normal" in="SourceGraphic" in2="effect1_dropShadow_157_29965" result="shape" />
    </filter>
    <filter id="filter21_d_157_29965" x="455.144" y="417.098" width="21.8447" height="21.8446" filterUnits="userSpaceOnUse" color-interpolation-filters="sRGB">
      <feFlood flood-opacity="0" result="BackgroundImageFix" />
      <feColorMatrix in="SourceAlpha" type="matrix" values="0 0 0 0 0 0 0 0 0 0 0 0 0 0 0 0 0 0 127 0" result="hardAlpha" />
      <feOffset dx="6" dy="6" />
      <feComposite in2="hardAlpha" operator="out" />
      <feColorMatrix type="matrix" values="0 0 0 0 0.0980392 0 0 0 0 0.0980392 0 0 0 0 0.0980392 0 0 0 1 0" />
      <feBlend mode="normal" in2="BackgroundImageFix" result="effect1_dropShadow_157_29965" />
      <feBlend mode="normal" in="SourceGraphic" in2="effect1_dropShadow_157_29965" result="shape" />
    </filter>
  </defs>
</svg>